<mxfile host="Electron" modified="2024-03-07T13:29:43.657Z" agent="Mozilla/5.0 (Windows NT 10.0; Win64; x64) AppleWebKit/537.36 (KHTML, like Gecko) draw.io/23.1.5 Chrome/120.0.6099.109 Electron/28.1.0 Safari/537.36" etag="Wvgl0bCgz85M-yKZ4dZz" version="23.1.5" type="device">
  <diagram name="Page-1" id="R1bpwf174gLvDCxN-8_B">
    <mxGraphModel dx="1434" dy="2013" grid="1" gridSize="10" guides="1" tooltips="1" connect="1" arrows="1" fold="1" page="1" pageScale="1" pageWidth="827" pageHeight="1169" math="0" shadow="0">
      <root>
        <mxCell id="0" />
        <mxCell id="1" parent="0" />
        <mxCell id="_xYPSqgWB2f4NrA6pV2X-1" value="Context" style="swimlane;fontStyle=1;align=center;verticalAlign=top;childLayout=stackLayout;horizontal=1;startSize=26;horizontalStack=0;resizeParent=1;resizeParentMax=0;resizeLast=0;collapsible=1;marginBottom=0;whiteSpace=wrap;html=1;" parent="1" vertex="1">
          <mxGeometry x="170" y="-690" width="160" height="116" as="geometry" />
        </mxCell>
        <mxCell id="_xYPSqgWB2f4NrA6pV2X-2" value="- strategy" style="text;strokeColor=none;fillColor=none;align=left;verticalAlign=top;spacingLeft=4;spacingRight=4;overflow=hidden;rotatable=0;points=[[0,0.5],[1,0.5]];portConstraint=eastwest;whiteSpace=wrap;html=1;" parent="_xYPSqgWB2f4NrA6pV2X-1" vertex="1">
          <mxGeometry y="26" width="160" height="26" as="geometry" />
        </mxCell>
        <mxCell id="_xYPSqgWB2f4NrA6pV2X-3" value="" style="line;strokeWidth=1;fillColor=none;align=left;verticalAlign=middle;spacingTop=-1;spacingLeft=3;spacingRight=3;rotatable=0;labelPosition=right;points=[];portConstraint=eastwest;strokeColor=inherit;" parent="_xYPSqgWB2f4NrA6pV2X-1" vertex="1">
          <mxGeometry y="52" width="160" height="8" as="geometry" />
        </mxCell>
        <mxCell id="_xYPSqgWB2f4NrA6pV2X-4" value="+ setStrategy(strategy)" style="text;strokeColor=none;fillColor=none;align=left;verticalAlign=top;spacingLeft=4;spacingRight=4;overflow=hidden;rotatable=0;points=[[0,0.5],[1,0.5]];portConstraint=eastwest;whiteSpace=wrap;html=1;" parent="_xYPSqgWB2f4NrA6pV2X-1" vertex="1">
          <mxGeometry y="60" width="160" height="30" as="geometry" />
        </mxCell>
        <mxCell id="_xYPSqgWB2f4NrA6pV2X-5" value="+ doSomething()" style="text;strokeColor=none;fillColor=none;align=left;verticalAlign=top;spacingLeft=4;spacingRight=4;overflow=hidden;rotatable=0;points=[[0,0.5],[1,0.5]];portConstraint=eastwest;whiteSpace=wrap;html=1;" parent="_xYPSqgWB2f4NrA6pV2X-1" vertex="1">
          <mxGeometry y="90" width="160" height="26" as="geometry" />
        </mxCell>
        <mxCell id="_xYPSqgWB2f4NrA6pV2X-7" value="&lt;p style=&quot;margin:0px;margin-top:4px;text-align:center;&quot;&gt;&lt;i&gt;&amp;lt;&amp;lt;Interface&amp;gt;&amp;gt;&lt;/i&gt;&lt;br&gt;&lt;b&gt;Strategy&lt;/b&gt;&lt;/p&gt;&lt;p style=&quot;margin:0px;margin-left:4px;&quot;&gt;&lt;br&gt;&lt;/p&gt;&lt;hr size=&quot;1&quot;&gt;&lt;p style=&quot;margin:0px;margin-left:4px;&quot;&gt;+ renderMovies(data)&lt;/p&gt;" style="verticalAlign=top;align=left;overflow=fill;html=1;whiteSpace=wrap;" parent="1" vertex="1">
          <mxGeometry x="490" y="-673.5" width="130" height="83.5" as="geometry" />
        </mxCell>
        <mxCell id="_xYPSqgWB2f4NrA6pV2X-8" value="Client" style="html=1;whiteSpace=wrap;" parent="1" vertex="1">
          <mxGeometry x="190" y="-430" width="110" height="50" as="geometry" />
        </mxCell>
        <mxCell id="_xYPSqgWB2f4NrA6pV2X-9" value="SearchStrategy" style="swimlane;fontStyle=1;align=center;verticalAlign=top;childLayout=stackLayout;horizontal=1;startSize=26;horizontalStack=0;resizeParent=1;resizeParentMax=0;resizeLast=0;collapsible=1;marginBottom=0;whiteSpace=wrap;html=1;" parent="1" vertex="1">
          <mxGeometry x="380" y="-450" width="160" height="86" as="geometry" />
        </mxCell>
        <mxCell id="_xYPSqgWB2f4NrA6pV2X-10" value="..." style="text;strokeColor=none;fillColor=none;align=left;verticalAlign=top;spacingLeft=4;spacingRight=4;overflow=hidden;rotatable=0;points=[[0,0.5],[1,0.5]];portConstraint=eastwest;whiteSpace=wrap;html=1;" parent="_xYPSqgWB2f4NrA6pV2X-9" vertex="1">
          <mxGeometry y="26" width="160" height="26" as="geometry" />
        </mxCell>
        <mxCell id="_xYPSqgWB2f4NrA6pV2X-11" value="" style="line;strokeWidth=1;fillColor=none;align=left;verticalAlign=middle;spacingTop=-1;spacingLeft=3;spacingRight=3;rotatable=0;labelPosition=right;points=[];portConstraint=eastwest;strokeColor=inherit;" parent="_xYPSqgWB2f4NrA6pV2X-9" vertex="1">
          <mxGeometry y="52" width="160" height="8" as="geometry" />
        </mxCell>
        <mxCell id="_xYPSqgWB2f4NrA6pV2X-12" value="+ renderMovies(data)" style="text;strokeColor=none;fillColor=none;align=left;verticalAlign=top;spacingLeft=4;spacingRight=4;overflow=hidden;rotatable=0;points=[[0,0.5],[1,0.5]];portConstraint=eastwest;whiteSpace=wrap;html=1;" parent="_xYPSqgWB2f4NrA6pV2X-9" vertex="1">
          <mxGeometry y="60" width="160" height="26" as="geometry" />
        </mxCell>
        <mxCell id="_xYPSqgWB2f4NrA6pV2X-13" value="MostWatchedStrategy" style="swimlane;fontStyle=1;align=center;verticalAlign=top;childLayout=stackLayout;horizontal=1;startSize=26;horizontalStack=0;resizeParent=1;resizeParentMax=0;resizeLast=0;collapsible=1;marginBottom=0;whiteSpace=wrap;html=1;" parent="1" vertex="1">
          <mxGeometry x="590" y="-450" width="160" height="86" as="geometry" />
        </mxCell>
        <mxCell id="_xYPSqgWB2f4NrA6pV2X-14" value="..." style="text;strokeColor=none;fillColor=none;align=left;verticalAlign=top;spacingLeft=4;spacingRight=4;overflow=hidden;rotatable=0;points=[[0,0.5],[1,0.5]];portConstraint=eastwest;whiteSpace=wrap;html=1;" parent="_xYPSqgWB2f4NrA6pV2X-13" vertex="1">
          <mxGeometry y="26" width="160" height="26" as="geometry" />
        </mxCell>
        <mxCell id="_xYPSqgWB2f4NrA6pV2X-15" value="" style="line;strokeWidth=1;fillColor=none;align=left;verticalAlign=middle;spacingTop=-1;spacingLeft=3;spacingRight=3;rotatable=0;labelPosition=right;points=[];portConstraint=eastwest;strokeColor=inherit;" parent="_xYPSqgWB2f4NrA6pV2X-13" vertex="1">
          <mxGeometry y="52" width="160" height="8" as="geometry" />
        </mxCell>
        <mxCell id="_xYPSqgWB2f4NrA6pV2X-16" value="+ renderMovies(data)" style="text;strokeColor=none;fillColor=none;align=left;verticalAlign=top;spacingLeft=4;spacingRight=4;overflow=hidden;rotatable=0;points=[[0,0.5],[1,0.5]];portConstraint=eastwest;whiteSpace=wrap;html=1;" parent="_xYPSqgWB2f4NrA6pV2X-13" vertex="1">
          <mxGeometry y="60" width="160" height="26" as="geometry" />
        </mxCell>
        <mxCell id="_xYPSqgWB2f4NrA6pV2X-17" value="" style="endArrow=open;html=1;endSize=12;startArrow=diamondThin;startSize=14;startFill=0;edgeStyle=orthogonalEdgeStyle;align=left;verticalAlign=bottom;rounded=0;strokeColor=#000000;" parent="1" edge="1">
          <mxGeometry x="-0.875" y="-72" relative="1" as="geometry">
            <mxPoint x="330" y="-632.3199999999999" as="sourcePoint" />
            <mxPoint x="490" y="-632.3199999999999" as="targetPoint" />
            <mxPoint as="offset" />
          </mxGeometry>
        </mxCell>
        <mxCell id="_xYPSqgWB2f4NrA6pV2X-20" value="" style="endArrow=block;dashed=1;endFill=0;endSize=12;html=1;rounded=0;exitX=0.5;exitY=0;exitDx=0;exitDy=0;" parent="1" edge="1">
          <mxGeometry width="160" relative="1" as="geometry">
            <mxPoint x="679.9999999999998" y="-450" as="sourcePoint" />
            <mxPoint x="550" y="-590" as="targetPoint" />
            <Array as="points">
              <mxPoint x="680" y="-510" />
              <mxPoint x="550" y="-510" />
            </Array>
          </mxGeometry>
        </mxCell>
        <mxCell id="_xYPSqgWB2f4NrA6pV2X-22" value="" style="endArrow=open;endFill=1;endSize=12;html=1;rounded=0;exitX=0.5;exitY=0;exitDx=0;exitDy=0;entryX=0.47;entryY=1.086;entryDx=0;entryDy=0;entryPerimeter=0;" parent="1" source="_xYPSqgWB2f4NrA6pV2X-8" target="_xYPSqgWB2f4NrA6pV2X-5" edge="1">
          <mxGeometry width="160" relative="1" as="geometry">
            <mxPoint x="190" y="-450" as="sourcePoint" />
            <mxPoint x="350" y="-450" as="targetPoint" />
          </mxGeometry>
        </mxCell>
        <mxCell id="wq_yBT1QEdFHuP_2MMSr-1" value="" style="endArrow=open;html=1;endSize=12;startArrow=diamondThin;startSize=14;startFill=1;edgeStyle=orthogonalEdgeStyle;align=left;verticalAlign=bottom;rounded=0;" parent="1" edge="1">
          <mxGeometry x="-1" y="3" relative="1" as="geometry">
            <mxPoint x="330" y="-632.12" as="sourcePoint" />
            <mxPoint x="490" y="-632.12" as="targetPoint" />
          </mxGeometry>
        </mxCell>
        <mxCell id="NjJDreOa7e80pwMUYhgN-1" value="" style="endArrow=none;dashed=1;html=1;rounded=0;exitX=0.478;exitY=-0.032;exitDx=0;exitDy=0;exitPerimeter=0;" edge="1" parent="1" source="_xYPSqgWB2f4NrA6pV2X-9">
          <mxGeometry width="50" height="50" relative="1" as="geometry">
            <mxPoint x="470" y="-480" as="sourcePoint" />
            <mxPoint x="550" y="-510" as="targetPoint" />
            <Array as="points">
              <mxPoint x="456" y="-510" />
            </Array>
          </mxGeometry>
        </mxCell>
        <mxCell id="NjJDreOa7e80pwMUYhgN-2" value="" style="endArrow=none;dashed=1;html=1;rounded=0;" edge="1" parent="1">
          <mxGeometry width="50" height="50" relative="1" as="geometry">
            <mxPoint x="560" y="-330" as="sourcePoint" />
            <mxPoint x="550" y="-510" as="targetPoint" />
            <Array as="points">
              <mxPoint x="560" y="-470" />
              <mxPoint x="550" y="-470" />
            </Array>
          </mxGeometry>
        </mxCell>
        <mxCell id="NjJDreOa7e80pwMUYhgN-3" value="FavoritedStrategy" style="swimlane;fontStyle=1;align=center;verticalAlign=top;childLayout=stackLayout;horizontal=1;startSize=26;horizontalStack=0;resizeParent=1;resizeParentMax=0;resizeLast=0;collapsible=1;marginBottom=0;whiteSpace=wrap;html=1;" vertex="1" parent="1">
          <mxGeometry x="480" y="-330" width="160" height="86" as="geometry" />
        </mxCell>
        <mxCell id="NjJDreOa7e80pwMUYhgN-4" value="..." style="text;strokeColor=none;fillColor=none;align=left;verticalAlign=top;spacingLeft=4;spacingRight=4;overflow=hidden;rotatable=0;points=[[0,0.5],[1,0.5]];portConstraint=eastwest;whiteSpace=wrap;html=1;" vertex="1" parent="NjJDreOa7e80pwMUYhgN-3">
          <mxGeometry y="26" width="160" height="26" as="geometry" />
        </mxCell>
        <mxCell id="NjJDreOa7e80pwMUYhgN-5" value="" style="line;strokeWidth=1;fillColor=none;align=left;verticalAlign=middle;spacingTop=-1;spacingLeft=3;spacingRight=3;rotatable=0;labelPosition=right;points=[];portConstraint=eastwest;strokeColor=inherit;" vertex="1" parent="NjJDreOa7e80pwMUYhgN-3">
          <mxGeometry y="52" width="160" height="8" as="geometry" />
        </mxCell>
        <mxCell id="NjJDreOa7e80pwMUYhgN-6" value="+ renderMovies(data)" style="text;strokeColor=none;fillColor=none;align=left;verticalAlign=top;spacingLeft=4;spacingRight=4;overflow=hidden;rotatable=0;points=[[0,0.5],[1,0.5]];portConstraint=eastwest;whiteSpace=wrap;html=1;" vertex="1" parent="NjJDreOa7e80pwMUYhgN-3">
          <mxGeometry y="60" width="160" height="26" as="geometry" />
        </mxCell>
      </root>
    </mxGraphModel>
  </diagram>
</mxfile>
